<svg width="76" height="82" viewBox="0 0 76 82" fill="none" xmlns="http://www.w3.org/2000/svg">
<path d="M59.6732 26.6132C60.0911 26.5544 60.496 26.6835 60.839 26.9495C61.1645 27.2394 61.3627 27.6284 61.3826 28.066C61.4026 28.2085 62.2711 42.4947 62.4688 48.5317C62.5821 52.2375 60.5407 54.784 57.0201 55.3408C54.315 55.7829 51.6655 56.1767 49.0538 56.5437C46.281 56.9334 43.5665 57.2936 40.9258 57.6027C37.5034 58.0003 34.8316 56.0756 33.948 52.54C32.4527 46.6641 29.3731 32.71 29.3327 32.5703C29.2516 32.1413 29.3328 31.7131 29.5679 31.3444C29.8018 30.9973 30.1758 30.7587 30.5958 30.6997L59.6732 26.6132ZM47.4818 14.0098C49.3351 13.7493 51.1723 14.8101 51.9107 16.5875L52.4683 18.0697C52.9209 19.278 54.1255 20.0087 55.3692 19.8339L61.4815 18.9749C62.297 18.8603 63.0711 19.442 63.1922 20.3036L63.3041 21.1002C63.4223 21.9408 62.8414 22.7343 62.0259 22.8489L27.2828 27.7317C26.4652 27.8466 25.6882 27.244 25.57 26.4033L25.4581 25.6067C25.337 24.7452 25.9207 23.9726 26.7383 23.8577L32.8506 22.9987C34.0922 22.8242 35.0488 21.7898 35.1531 20.5053L35.2723 19.0306C35.496 17.0132 36.9514 15.4897 38.825 15.2264L47.4818 14.0098Z" fill="url(#paint0_linear_586_630)"/>
<g filter="url(#filter0_bdi_586_630)">
<path d="M51.4905 35.2766C51.9969 35.2766 52.4565 35.4976 52.8196 35.871C53.1581 36.2699 53.3286 36.7652 53.2792 37.2885C53.2792 37.4613 51.9253 54.5829 51.152 61.7898C50.6677 66.2124 47.8167 68.8975 43.5401 68.9712C40.2517 69.0449 37.0374 69.0703 33.8726 69.0703C30.5126 69.0703 27.2267 69.0449 24.0371 68.9712C19.9038 68.8721 17.0503 66.1388 16.5907 61.7898C15.7952 54.5575 14.466 37.4613 14.4413 37.2885C14.4166 36.7652 14.5846 36.2699 14.9255 35.871C15.2615 35.4976 15.7458 35.2766 16.2547 35.2766H51.4905ZM39.108 18.2637C41.3538 18.2637 43.3599 19.8311 43.9405 22.0665L44.3556 23.921C44.6916 25.4324 46.001 26.5019 47.5081 26.5019H54.915C55.9032 26.5019 56.7259 27.3224 56.7259 28.3665V29.3318C56.7259 30.3505 55.9032 31.1964 54.915 31.1964H12.8134C11.8227 31.1964 11 30.3505 11 29.3318V28.3665C11 27.3224 11.8227 26.5019 12.8134 26.5019H20.2203C21.7249 26.5019 23.0343 25.4324 23.3728 23.9235L23.7607 22.191C24.3635 19.8311 26.3474 18.2637 28.6179 18.2637H39.108Z" fill="#DCECFF" fill-opacity="0.0175" shape-rendering="crispEdges"/>
<path d="M52.6441 37.2586L52.6469 37.2288C52.6785 36.8947 52.5754 36.5727 52.3491 36.2984C52.0905 36.0392 51.7945 35.9117 51.4905 35.9117H16.2547C15.9317 35.9117 15.6205 36.0515 15.4029 36.29C15.1731 36.5619 15.0602 36.8935 15.0753 37.251C15.0924 37.4361 15.1436 38.0724 15.2195 39.0141C15.2463 39.3472 15.2762 39.7185 15.3087 40.1216C15.4492 41.8614 15.6425 44.2399 15.8598 46.8389C16.2948 52.0398 16.8253 58.1138 17.222 61.7203L17.2223 61.723C17.439 63.7737 18.2137 65.3971 19.3767 66.5167C20.5374 67.634 22.1267 68.29 24.0518 68.3363C24.052 68.3363 24.0522 68.3363 24.0523 68.3363L24.0371 68.9712C27.2267 69.0449 30.5126 69.0703 33.8726 69.0703C37.0374 69.0703 40.2517 69.0449 43.5401 68.9712L52.6441 37.2586ZM52.6441 37.2586V37.2885C52.6441 37.2759 52.6433 37.2864 52.6398 37.3357C52.6378 37.3647 52.6348 37.4071 52.6304 37.4662C52.6204 37.6018 52.6055 37.7973 52.5863 38.0464C52.5478 38.5445 52.4919 39.2551 52.4225 40.1257C52.2835 41.8671 52.0902 44.2479 51.8727 46.8484C51.4375 52.0519 50.9063 58.1267 50.5206 61.7216L52.6441 37.2586ZM23.9925 24.0625L23.9925 24.0622L24.3783 22.3393C24.9163 20.2484 26.6577 18.8988 28.6179 18.8988H39.108C41.0534 18.8988 42.81 20.2584 43.3232 22.2161L43.7356 24.0588C44.1339 25.8505 45.6929 27.137 47.5081 27.137H54.915C55.5409 27.137 56.0908 27.6615 56.0908 28.3665V29.3318C56.0908 30.0171 55.5354 30.5613 54.915 30.5613H12.8134C12.19 30.5613 11.6351 30.0165 11.6351 29.3318V28.3665C11.6351 27.6621 12.1844 27.137 12.8134 27.137H20.2203C22.0332 27.137 23.5914 25.8505 23.9925 24.0625Z" stroke="white" stroke-opacity="0.35" stroke-width="1.27016" shape-rendering="crispEdges"/>
</g>
<defs>
<filter id="filter0_bdi_586_630" x="-1" y="0.263702" width="76.7258" height="80.8066" filterUnits="userSpaceOnUse" color-interpolation-filters="sRGB">
<feFlood flood-opacity="0" result="BackgroundImageFix"/>
<feGaussianBlur in="BackgroundImageFix" stdDeviation="6"/>
<feComposite in2="SourceAlpha" operator="in" result="effect1_backgroundBlur_586_630"/>
<feColorMatrix in="SourceAlpha" type="matrix" values="0 0 0 0 0 0 0 0 0 0 0 0 0 0 0 0 0 0 127 0" result="hardAlpha"/>
<feOffset dx="4" dy="-3"/>
<feGaussianBlur stdDeviation="7.5"/>
<feComposite in2="hardAlpha" operator="out"/>
<feColorMatrix type="matrix" values="0 0 0 0 1 0 0 0 0 1 0 0 0 0 1 0 0 0 0.25 0"/>
<feBlend mode="normal" in2="effect1_backgroundBlur_586_630" result="effect2_dropShadow_586_630"/>
<feBlend mode="normal" in="SourceGraphic" in2="effect2_dropShadow_586_630" result="shape"/>
<feColorMatrix in="SourceAlpha" type="matrix" values="0 0 0 0 0 0 0 0 0 0 0 0 0 0 0 0 0 0 127 0" result="hardAlpha"/>
<feOffset dy="-4.58"/>
<feGaussianBlur stdDeviation="2.29"/>
<feComposite in2="hardAlpha" operator="arithmetic" k2="-1" k3="1"/>
<feColorMatrix type="matrix" values="0 0 0 0 0.862745 0 0 0 0 0.92549 0 0 0 0 1 0 0 0 0.3026 0"/>
<feBlend mode="normal" in2="shape" result="effect3_innerShadow_586_630"/>
</filter>
<linearGradient id="paint0_linear_586_630" x1="40.3769" y1="5.53911" x2="61.7169" y2="49.5825" gradientUnits="userSpaceOnUse">
<stop offset="0.0745377" stop-color="#D50000"/>
<stop offset="0.314491" stop-color="#FD0000"/>
<stop offset="1" stop-color="#FE5454"/>
</linearGradient>
</defs>
</svg>
